<svg width="64" height="50" viewBox="0 0 64 50" fill="none" xmlns="http://www.w3.org/2000/svg">
<path d="M19.2 0C11.2873 0 5.8325 2.6925 5.8325 2.6925C5.61857 2.7983 5.43849 2.9618 5.31259 3.1646C5.18669 3.3674 5.11998 3.6013 5.12 3.84V7.68H3.84C1.73444 7.68 0 9.4144 0 11.52V44.8C0 46.9055 1.73444 48.64 3.84 48.64H29.1575C29.8603 49.4199 30.8673 49.92 32 49.92C33.1327 49.92 34.1397 49.4199 34.8425 48.64H60.16C62.2656 48.64 64 46.9055 64 44.8V11.52C64 9.4144 62.2656 7.68 60.16 7.68H58.88V3.84C58.88 3.6013 58.8133 3.3674 58.6874 3.1646C58.5615 2.9618 58.3814 2.7983 58.1675 2.6925C58.1675 2.6925 52.7127 0 44.8 0C38.0391 0 33.3026 1.8752 32 2.4475C30.6974 1.8752 25.9609 0 19.2 0ZM19.2 2.56C25.7626 2.56 29.8182 4.3191 30.72 4.73V41.7C28.8236 40.9416 25.1687 39.68 19.2 39.68C13.2313 39.68 9.57643 40.9416 7.68 41.7V9.175C7.70285 9.0367 7.70285 8.8957 7.68 8.7575V4.73C8.58184 4.3191 12.6374 2.56 19.2 2.56ZM44.8 2.56C51.3626 2.56 55.4182 4.3191 56.32 4.73V8.745C56.2972 8.8832 56.2972 9.0242 56.32 9.1625V41.7C54.4236 40.9416 50.7687 39.68 44.8 39.68C38.8313 39.68 35.1764 40.9416 33.28 41.7V4.73C34.1818 4.3191 38.2374 2.56 44.8 2.56ZM43.52 7.68V10.35C41.3256 10.7045 39.8973 11.9314 39.205 13.1575C38.3854 14.609 38.4 16.055 38.4 16.055C38.4 17.8742 39.314 19.3242 40.4725 20.2675C41.631 21.2108 43.0042 21.7916 44.2825 22.3575C45.5608 22.9234 46.7415 23.4748 47.5025 24.105C48.2635 24.7351 48.64 25.3058 48.64 26.4C48.64 26.4 48.6292 27.1494 48.18 27.9075C47.7308 28.6655 47 29.44 44.8 29.44C42.6667 29.44 41.9524 28.5622 41.465 27.5875C40.9776 26.6128 40.96 25.6 40.96 25.6H38.4C38.4 25.6 38.3823 27.1472 39.175 28.7325C39.8466 30.0757 41.2828 31.4774 43.52 31.8775V34.56H46.08V31.895C48.2585 31.558 49.6789 30.3955 50.38 29.2125C51.2108 27.8105 51.2 26.4 51.2 26.4C51.2 24.561 50.2965 23.0922 49.1375 22.1325C47.9785 21.1727 46.5992 20.5849 45.3175 20.0175C44.0358 19.4501 42.849 18.9025 42.0875 18.2825C41.326 17.6624 40.96 17.1157 40.96 16.055C40.96 16.055 40.9746 15.2303 41.435 14.415C41.8954 13.5997 42.6178 12.8 44.8 12.8C46.9333 12.8 47.6476 13.6778 48.135 14.6525C48.6223 15.6272 48.64 16.64 48.64 16.64H51.2C51.2 16.64 51.2177 15.0928 50.425 13.5075C49.7534 12.1642 48.3172 10.7626 46.08 10.3625V7.68H43.52ZM3.84 10.24H5.12V43.52C5.12001 43.7382 5.17578 43.9527 5.28203 44.1433C5.38829 44.3339 5.54148 44.4941 5.72709 44.6088C5.91269 44.7236 6.12453 44.7889 6.3425 44.7988C6.56047 44.8086 6.77733 44.7625 6.9725 44.665C6.9725 44.665 11.8071 42.24 19.2 42.24C26.5929 42.24 31.4275 44.665 31.4275 44.665C31.4634 44.6825 31.5001 44.6984 31.5375 44.7125C31.5704 44.7247 31.6037 44.7355 31.6375 44.745C31.6475 44.7484 31.6575 44.7518 31.6675 44.755C31.7468 44.7769 31.828 44.7911 31.91 44.7975C31.9533 44.8005 31.9967 44.8013 32.04 44.8C32.0425 44.8 32.045 44.8 32.0475 44.8C32.0902 44.7979 32.1327 44.7938 32.175 44.7875C32.2136 44.7826 32.252 44.7759 32.29 44.7675C32.2933 44.7666 32.2967 44.7658 32.3 44.765C32.3042 44.7642 32.3083 44.7633 32.3125 44.7625C32.4024 44.7395 32.4896 44.7068 32.5725 44.665C32.5725 44.665 37.4071 42.24 44.8 42.24C52.1929 42.24 57.0275 44.665 57.0275 44.665C57.2227 44.7625 57.4395 44.8086 57.6575 44.7988C57.8755 44.7889 58.0873 44.7236 58.2729 44.6088C58.4585 44.4941 58.6117 44.3339 58.718 44.1433C58.8242 43.9527 58.88 43.7382 58.88 43.52V10.24H60.16C60.8832 10.24 61.44 10.7967 61.44 11.52V44.8C61.44 45.5232 60.8832 46.08 60.16 46.08H3.84C3.11676 46.08 2.56 45.5232 2.56 44.8V11.52C2.56 10.7967 3.11676 10.24 3.84 10.24Z" fill="#00486D"/>
</svg>
